<?xml version="1.0" encoding="UTF-8"?>
<svg width="176px" height="50px" viewBox="0 0 176 50" version="1.1" xmlns="http://www.w3.org/2000/svg" xmlns:xlink="http://www.w3.org/1999/xlink">
    <!-- Generator: Sketch 51.1 (57501) - http://www.bohemiancoding.com/sketch -->
    <title>Group 24</title>
    <desc>Created with Sketch.</desc>
    <defs>
        <polygon id="path-1" points="0 0.9019 10.1778 0.9019 10.1778 12.6599 0 12.6599"></polygon>
    </defs>
    <g id="Page-5" stroke="none" stroke-width="1" fill="none" fill-rule="evenodd">
        <g id="Group-24" transform="translate(0.000000, -1.000000)">
            <polygon id="Fill-1" fill="#4545B5" points="137.4462 33.7417 143.9012 33.7417 143.9012 4.5857 137.4462 1.0007"></polygon>
            <g id="Group-23" transform="translate(0.000000, 0.559100)">
                <path d="M127.0291,28.5187 C126.6861,29.4517 126.1851,30.2757 125.5221,30.9927 C124.8581,31.7107 124.0601,32.2837 123.1291,32.7147 C122.1951,33.1447 121.1381,33.3597 119.9551,33.3597 C118.7711,33.3597 117.7141,33.1447 116.7821,32.7147 C115.8481,32.2837 115.0501,31.7107 114.3871,30.9927 C113.7231,30.2757 113.2211,29.4517 112.8821,28.5187 C112.5401,27.5867 112.3711,26.6187 112.3711,25.6137 C112.3711,24.6107 112.5401,23.6417 112.8821,22.7097 C113.2211,21.7767 113.7231,20.9527 114.3871,20.2347 C115.0501,19.5177 115.8481,18.9437 116.7821,18.5137 C117.7141,18.0827 118.7711,17.8677 119.9551,17.8677 C121.1381,17.8677 122.1951,18.0827 123.1291,18.5137 C124.0601,18.9437 124.8581,19.5177 125.5221,20.2347 C126.1851,20.9527 126.6861,21.7767 127.0291,22.7097 C127.3691,23.6417 127.5401,24.6107 127.5401,25.6137 C127.5401,26.6187 127.3691,27.5867 127.0291,28.5187 M133.1331,20.2887 C132.5591,18.6397 131.7161,17.2047 130.6051,15.9857 C129.4941,14.7667 128.1481,13.8067 126.5721,13.1077 C125.1371,12.4717 123.5331,12.1407 121.7731,12.0827 L121.7861,12.0587 C121.6331,12.0547 121.4861,12.0617 121.3361,12.0627 C121.3041,12.0627 121.2761,12.0587 121.2461,12.0587 C121.2061,12.0587 121.1671,12.0637 121.1261,12.0647 C120.7721,12.0707 120.4271,12.0877 120.0901,12.1167 C119.9991,12.1237 119.9081,12.1287 119.8171,12.1387 C116.1541,12.5167 113.4281,14.1247 112.2621,14.9347 L112.2621,14.8927 L106.1311,12.7037 L106.1311,43.7787 L112.5861,43.7787 L112.5861,36.6687 C114.2901,37.6547 115.9021,39.0057 120.0621,39.1517 C120.1131,39.1537 120.1601,39.1607 120.2101,39.1637 C120.3081,39.1697 120.4001,39.1817 120.5021,39.1867 C121.2441,39.2267 122.3061,39.1817 122.8511,39.1037 C122.8601,39.1027 122.8701,39.1017 122.8801,39.1007 L122.9761,39.0857 C124.2501,38.9467 125.4501,38.6287 126.5721,38.1207 C128.1131,37.4207 129.4301,36.4617 130.5241,35.2427 C131.6191,34.0237 132.4691,32.5887 133.0801,30.9387 C133.6891,29.2907 133.9951,27.5147 133.9951,25.6137 C133.9951,23.7137 133.7071,21.9387 133.1331,20.2887" id="Fill-2" fill="#4545B5"></path>
                <path d="M85.8465,35.9567 C85.7395,35.6147 85.4765,35.1207 85.0395,34.6517 C84.2325,33.7877 83.8285,32.4617 84.1745,30.8477 C84.5205,29.2337 84.9235,29.0027 84.6355,27.9657 C84.3475,26.9277 83.0795,26.2367 82.7915,26.1787 C82.5025,26.1207 82.3885,25.7747 82.1005,25.3717 C81.8115,24.9687 81.4075,24.3337 81.4075,24.1037 C81.4075,23.9527 81.3575,23.4287 81.3235,23.0867 C81.3055,22.9077 81.2925,22.7777 81.2925,22.7777 L81.2925,23.2967 C81.2925,23.2967 80.8885,24.1607 81.0045,24.6227 C81.1195,25.0837 81.2925,26.3517 80.5425,26.9277 C79.7935,27.5047 79.2755,27.3637 78.9285,27.7347 C78.6965,27.9837 78.4925,28.4137 78.3825,28.6717 C78.0205,27.5917 77.8155,26.4417 77.7975,25.2447 C78.0665,25.0997 78.4835,24.8717 78.5985,24.7957 C78.7715,24.6797 79.2335,23.9887 79.5215,23.5847 C79.8095,23.1817 80.2125,22.9507 81.0775,22.7777 C81.9425,22.6047 81.8845,22.4897 81.9995,22.0857 C82.1155,21.6827 83.2105,21.1637 83.7295,20.9907 C84.2475,20.8177 84.4785,20.7607 84.6515,20.4717 C84.8245,20.1837 84.8245,20.0107 84.8825,19.6077 C84.9395,19.2037 85.8615,19.0307 86.1505,18.9737 C86.4385,18.9157 86.4385,18.8577 86.5535,18.5697 C86.6685,18.2817 86.2075,18.2237 85.9775,18.2177 C85.7465,18.2107 85.5165,17.8207 85.5165,17.5327 C85.5165,17.2437 85.9195,17.0707 86.1505,17.0707 C86.3805,17.0707 86.4965,17.5897 86.7265,17.9357 C86.9575,18.2817 87.2455,18.3397 87.4755,17.9357 C87.7065,17.5327 87.5915,17.4167 87.8795,17.1867 C88.1675,16.9557 88.1675,17.0707 88.6285,16.7837 C89.0895,16.4957 88.6285,16.1487 88.6285,15.7457 C88.6285,15.3417 89.4515,14.6497 89.4515,14.6497 C89.4515,14.6497 89.6785,14.0847 89.6415,13.7017 C90.4595,13.7347 91.2555,13.8537 92.0205,14.0517 L91.5925,14.5187 C91.5925,14.5187 92.2245,15.5147 92.3975,15.9757 C92.5705,16.4367 92.3975,17.5327 92.3975,17.5327 C92.3975,17.5327 92.1885,18.2817 92.0335,18.6277 C91.8785,18.9737 91.7105,19.4917 91.5925,19.8377 C91.4755,20.1837 91.5325,20.5297 91.2445,20.8177 C90.9565,21.1057 90.8415,21.3367 90.6105,21.6247 C90.3805,21.9127 90.1325,22.3747 90.1325,22.3747 C90.1325,22.3747 90.3225,22.8927 90.5535,22.7777 C90.7835,22.6627 91.3035,22.7777 91.3035,22.7777 L91.3035,23.1237 C91.3035,23.1237 91.0715,23.6427 91.0145,23.8157 C90.9565,23.9887 90.7835,24.4497 90.4955,24.6797 C90.2075,24.9107 89.9345,25.3717 89.9345,25.3717 C90.2075,25.7177 90.2075,25.7457 90.4955,25.7317 C90.7835,25.7177 91.5905,25.0257 91.5905,25.0257 C91.5905,25.0257 92.0515,24.8527 92.2245,24.8527 C92.3975,24.8527 92.9165,24.7957 92.9165,24.7957 L93.6085,25.1407 C93.6085,25.1407 94.1265,25.5737 94.1845,25.7317 C94.2425,25.8907 94.7605,26.4097 94.7605,26.4097 C94.7605,26.4097 94.6455,26.7547 95.2225,26.9857 C95.7985,27.2167 96.3175,26.9857 96.3175,26.9857 L96.3175,26.0637 L95.9135,24.6797 L96.3175,24.5067 L97.0095,24.7377 C97.0095,24.7377 97.2395,24.9687 97.4705,24.9687 C97.7005,24.9687 97.2395,24.6797 97.4705,24.5067 C97.7005,24.3337 97.2395,23.6427 97.2395,23.6427 L97.5365,23.1237 L98.2195,22.7777 L98.7955,22.2587 L98.7955,21.3947 L99.3145,20.8037 L99.7305,20.8037 C100.2655,22.1217 100.5665,23.5597 100.5665,25.0667 C100.5665,26.4147 100.3185,27.7017 99.8875,28.9027 L99.8215,28.8307 C99.8215,28.8307 98.8195,28.8757 98.8775,29.1127 C98.9345,29.3487 98.7045,29.9257 98.5895,30.1557 C98.4735,30.3867 98.1275,31.0207 98.1275,31.0207 C98.1275,31.0207 97.7245,30.8477 97.4935,31.0207 C97.2635,31.1937 96.6295,31.1937 96.6865,31.5967 C96.7445,32.0007 96.3915,32.0587 96.6835,32.5197 C96.9365,32.9197 96.8755,32.9587 97.0505,33.2767 C95.5965,34.6727 93.7745,35.6827 91.7455,36.1537 C92.0665,35.9417 92.5215,35.6377 92.7945,35.2867 C93.1985,34.7677 93.3715,34.7677 93.6015,34.4797 C93.8325,34.1907 93.8905,33.7877 93.8905,33.4417 C93.8905,33.0957 93.8325,32.8077 93.8325,32.5197 C93.8325,32.2307 93.8905,31.3087 93.8905,31.3087 C93.8905,31.3087 94.3515,30.6167 94.3415,30.3287 C94.3315,30.0407 94.7545,29.5837 94.7545,29.5837 L94.7545,28.7147 L94.3415,27.8507 L92.9675,27.0877 L92.4495,26.1207 L91.6995,27.0877 L90.8355,28.6577 C90.8355,28.6577 89.5095,28.4267 89.4345,28.4267 C89.3605,28.4267 88.4715,28.6577 88.4715,28.6577 C88.4715,28.6577 88.1835,29.5217 88.1835,29.5837 C88.1835,29.6457 88.9325,30.7897 88.9325,30.7897 L89.7395,31.6547 C89.7395,31.6547 90.2585,32.5767 90.3165,32.9227 C90.3735,33.2687 91.0075,34.9407 90.9505,35.6317 C90.9245,35.9427 90.9815,36.1557 91.0665,36.2857 C90.4505,36.3897 89.8225,36.4557 89.1775,36.4557 C88.0185,36.4557 86.9005,36.2797 85.8465,35.9567 M89.1775,11.0277 C81.4235,11.0277 75.1375,17.3137 75.1375,25.0667 C75.1375,32.8207 81.4235,39.1067 89.1775,39.1067 C96.9315,39.1067 103.2165,32.8207 103.2165,25.0667 C103.2165,17.3137 96.9315,11.0277 89.1775,11.0277" id="Fill-4" fill="#4545B5"></path>
                <path d="M76.739,9.9836 L76.825,10.0316 C80.086,3.5056 86.693,0.8486 93.266,0.8486 C98.261,0.8486 103.101,2.7246 107.013,5.2896 C107.013,5.2896 107.604,4.5516 105.943,6.5226 C104.391,8.3646 103.537,10.4456 103.537,10.4456 C100.772,7.6356 95.879,5.2576 89.989,5.0036 C85.091,4.7916 80.143,6.9116 76.825,10.0316 L76.739,9.9836 Z" id="Fill-6" fill="#FF9100"></path>
                <g id="Group-10">
                    <mask id="mask-2" fill="white">
                        <use xlink:href="#path-1"></use>
                    </mask>
                    <g id="Clip-9"></g>
                    <path d="M-0.0002,5.9909 C-0.0002,3.1799 2.2778,0.9019 5.0888,0.9019 C7.8998,0.9019 10.1778,3.1799 10.1778,5.9909 C10.1778,7.4879 9.5318,8.8339 8.5028,9.7649 C8.5028,9.7649 7.5988,10.6459 6.1908,11.1059 C4.9298,11.5179 5.3558,12.6599 5.3558,12.6599 C5.3558,12.6599 2.7078,11.6629 0.8518,8.8099 L0.8528,8.8099 C0.3148,8.0029 -0.0002,7.0339 -0.0002,5.9909" id="Fill-8" fill="#FF9100" mask="url(#mask-2)"></path>
                </g>
                <path d="M8.8909,33.238 L8.8909,17.058 L1.2869,13.994 L1.2869,37.19 L1.2869,38.926 C3.3319,38.197 8.8909,38.308 8.8909,33.238" id="Fill-11" fill="#FF9100"></path>
                <path d="M31.4641,20.048 L23.2831,20.048 L23.2831,7.133 L31.4641,7.133 C35.0301,7.133 37.9221,10.024 37.9221,13.59 C37.9221,17.157 35.0301,20.048 31.4641,20.048 M31.7471,0.902 L23.2831,0.902 L23.2831,0.896 L15.8951,0.896 L15.8951,8.52 L15.8951,37.159 L15.8951,37.371 L15.8951,39.048 C17.8831,38.344 23.2881,38.451 23.2881,33.549 L23.2881,30.967 L23.2901,30.967 L23.2901,22.423 L23.2831,22.423 L23.2831,26.392 L31.7471,26.392 C38.7861,26.392 44.4931,20.686 44.4931,13.647 C44.4931,6.608 38.7861,0.902 31.7471,0.902" id="Fill-13" fill="#4545B5"></path>
                <path d="M106.1277,39.1389 L106.1277,48.3489 L106.1277,48.5329 L106.1277,49.9999 C107.8647,49.3839 112.5877,49.4779 112.5877,45.1939 L112.5877,42.9379 L112.5897,42.9379 L112.5897,39.1389 L106.1277,39.1389 Z" id="Fill-15" fill="#4545B5"></path>
                <path d="M137.4431,28.2141 L137.4431,37.4241 L137.4431,37.6081 L137.4431,39.0751 C139.1791,38.4591 143.9031,38.5531 143.9031,34.2691 L143.9031,32.0131 L143.9051,32.0131 L143.9051,28.2141 L137.4431,28.2141 Z" id="Fill-17" fill="#4545B5"></path>
                <path d="M153.9676,24.673 C153.6936,22.812 154.0056,21.695 154.7836,20.314 C155.5636,18.934 156.8816,17.976 158.7436,17.44 C160.7076,16.876 162.3926,16.961 163.7976,17.694 C165.2026,18.429 166.0356,19.269 166.5956,21.086 L153.9676,24.673 Z M167.5376,31.081 C167.5376,31.081 167.5546,31.073 167.5396,31.071 C167.3596,31.269 167.1826,31.45 167.0166,31.584 C165.9216,32.472 165.1986,32.905 163.6486,33.351 C161.8906,33.857 159.9336,33.855 158.5946,33.202 C157.0846,32.466 156.1086,31.631 155.3656,29.83 L174.2866,24.389 L173.7956,22.683 C173.1716,20.512 172.3346,18.673 171.2846,17.164 C170.2366,15.657 169.0386,14.48 167.6966,13.635 C167.6966,13.635 161.0686,8.984 153.0866,14.07 C153.0866,14.07 147.9276,17.438 147.9556,25.059 C147.9216,26.132 148.0296,27.233 148.2706,28.361 C148.2726,28.368 148.2726,28.375 148.2746,28.382 L148.2756,28.381 C148.3516,28.732 148.4356,29.086 148.5376,29.442 C149.1036,31.407 149.9686,33.089 151.1356,34.488 C152.3026,35.888 153.6536,36.982 155.1876,37.773 C156.7196,38.563 158.2316,39.092 160.0646,39.237 C161.8976,39.381 164.1756,39.238 165.7766,38.59 C167.7786,37.78 169.5016,36.798 170.9596,35.393 C172.9106,33.514 174.0716,32.448 175.2406,30.3 C175.2406,30.3 171.9176,29.412 170.2246,29.412 C168.6496,29.412 167.5376,31.081 167.5376,31.081 Z" id="Fill-19" fill="#4545B5"></path>
                <path d="M51.7874,24.673 C51.5124,22.812 51.8254,21.695 52.6034,20.314 C53.3824,18.934 54.7014,17.976 56.5634,17.44 C58.5274,16.876 60.2114,16.961 61.6174,17.694 C63.0224,18.429 63.8554,19.269 64.4154,21.086 L51.7874,24.673 Z M65.3574,31.081 C65.3574,31.081 65.3734,31.073 65.3594,31.071 C65.1784,31.269 65.0014,31.45 64.8354,31.584 C63.7414,32.472 63.0184,32.905 61.4674,33.351 C59.7094,33.857 57.7524,33.855 56.4144,33.202 C54.9044,32.466 53.9274,31.631 53.1854,29.83 L72.1064,24.389 L71.6154,22.683 C70.9914,20.512 70.1544,18.673 69.1044,17.164 C68.0554,15.657 66.8584,14.48 65.5154,13.635 C65.5154,13.635 58.8874,8.984 50.9064,14.07 C50.9064,14.07 45.7474,17.438 45.7754,25.059 C45.7414,26.132 45.8484,27.233 46.0894,28.361 C46.0914,28.368 46.0914,28.375 46.0934,28.382 L46.0944,28.381 C46.1704,28.732 46.2544,29.086 46.3574,29.442 C46.9224,31.407 47.7884,33.089 48.9554,34.488 C50.1224,35.888 51.4724,36.982 53.0064,37.773 C54.5394,38.563 56.0504,39.092 57.8834,39.237 C59.7164,39.381 61.9954,39.238 63.5954,38.59 C65.5974,37.78 67.3214,36.798 68.7794,35.393 C70.7304,33.514 71.8914,32.448 73.0604,30.3 C73.0604,30.3 69.7374,29.412 68.0434,29.412 C66.4684,29.412 65.3574,31.081 65.3574,31.081 Z" id="Fill-21" fill="#4545B5"></path>
            </g>
        </g>
    </g>
</svg>