<?xml version="1.0" encoding="UTF-8"?>
<svg width="390px" height="337px" viewBox="0 0 390 337" version="1.1" xmlns="http://www.w3.org/2000/svg" xmlns:xlink="http://www.w3.org/1999/xlink">
    <!-- Generator: Sketch 53.2 (72643) - https://sketchapp.com -->
    <title>颜色1</title>
    <desc>Created with Sketch.</desc>
    <defs>
        <linearGradient x1="29.4373426%" y1="21.6901269%" x2="70.25198%" y2="78.3098731%" id="linearGradient-1">
            <stop stop-color="#20419E" offset="0%"></stop>
            <stop stop-color="#467DEB" offset="100%"></stop>
        </linearGradient>
        <linearGradient x1="20.8462856%" y1="51.4739931%" x2="100%" y2="46.2623086%" id="linearGradient-2">
            <stop stop-color="#467DEB" offset="0%"></stop>
            <stop stop-color="#13C2C2" offset="46.6861053%"></stop>
            <stop stop-color="#5CDBD3" offset="100%"></stop>
        </linearGradient>
        <linearGradient x1="68.0316042%" y1="0%" x2="23.1673976%" y2="88.2281898%" id="linearGradient-3">
            <stop stop-color="#5CDBD3" offset="0%"></stop>
            <stop stop-color="#467DEB" offset="45.6900073%"></stop>
            <stop stop-color="#20419E" offset="100%"></stop>
        </linearGradient>
    </defs>
    <g id="页面-1" stroke="none" stroke-width="1" fill="none" fill-rule="evenodd">
        <g id="画板" transform="translate(-317.000000, -283.000000)">
            <g id="颜色1" transform="translate(302.000000, 283.000000)">
                <path d="M47.1910112,80 L139.535825,80 L161.794555,118.020892 C162.51219,119.246709 163.826078,120 165.24651,120 L202.667728,120 C204.876867,120 206.667728,121.790861 206.667728,124 C206.667728,124.713019 206.477138,125.413079 206.115692,126.027695 L163.773583,198.027695 C163.054959,199.249668 161.743236,200 160.325619,200 L120.262058,200 C118.846351,200 117.536099,199.251672 116.816811,198.032308 L47.1910112,80 Z" id="left" fill="url(#linearGradient-1)"></path>
                <path d="M70.7865169,120 L17.7919205,30.1615415 C12.1798561,20.6477561 15.3428259,8.3858322 24.8566112,2.77376782 C27.9350941,0.95780886 31.4439726,4.20927991e-15 35.0181527,3.55271368e-15 L384.981847,-4.61852778e-14 C396.027542,-4.82143391e-14 404.981847,8.954305 404.981847,20 C404.981847,23.5741801 404.024038,27.0830587 402.208079,30.1615415 L373.969706,78.0323083 C373.250418,79.2516724 371.940165,80 370.524459,80 L93.7406401,80 C88.9757715,80 84.2992907,81.2864559 80.204849,83.7235688 C67.6455403,91.1991798 63.524389,107.440691 71,120 L70.7865169,120 Z" id="路径" fill="url(#linearGradient-2)"></path>
                <path d="M345.655099,126.032308 L227.226232,326.797435 C221.614168,336.31122 209.352244,339.47419 199.838459,333.862126 C196.923818,332.142815 194.493078,329.712076 192.773768,326.797435 L164.758034,279.304095 C164.018362,278.050176 164.018362,276.493398 164.758034,275.239479 L255.171167,121.967692 C255.890454,120.748328 257.200707,120 258.616413,120 L342.209853,120 C344.418992,120 346.209853,121.790861 346.209853,124 C346.209853,124.714836 346.018291,125.416612 345.655099,126.032308 Z" id="路径" fill="url(#linearGradient-3)"></path>
            </g>
        </g>
    </g>
</svg>